<?xml version="1.0" standalone="no"?>
<!DOCTYPE svg PUBLIC "-//W3C//DTD SVG 20010904//EN"
 "http://www.w3.org/TR/2001/REC-SVG-20010904/DTD/svg10.dtd">
<svg version="1.0" xmlns="http://www.w3.org/2000/svg"
 viewBox="0 0 1280.000000 1280.000000"
 preserveAspectRatio="xMidYMid meet" width="12800pt" height="12800pt">

<g transform="translate(0.000000,1280.000000) scale(0.100000,-0.100000)"
fill="#ffffff" stroke="none">
<path d="M880 8450 l0 -140 5528 2 5527 3 0 135 0 135 -5527 3 -5528 2 0 -140z"/>
<path d="M8426 7238 c-14 -20 -16 -82 -16 -541 l0 -518 25 -25 c19 -19 31 -23
48 -18 48 14 47 3 47 420 0 256 4 394 10 394 6 0 10 -4 10 -9 0 -4 42 -95 94
-202 51 -107 112 -232 134 -279 140 -297 152 -320 179 -326 50 -13 42 -26 211
326 54 113 129 272 168 354 l69 148 5 -398 c3 -220 7 -400 8 -401 1 -2 13 -10
26 -18 22 -15 27 -15 55 0 l31 16 0 534 c0 590 2 570 -63 563 -35 -4 -16 31
-297 -540 -105 -214 -194 -388 -198 -388 -4 0 -111 208 -237 463 -226 455
-230 462 -262 465 -23 2 -35 -3 -47 -20z"/>
<path d="M2286 7229 l-26 -20 0 -529 0 -529 26 -20 c34 -27 40 -26 69 4 l25
24 0 421 c0 231 3 420 8 420 4 -1 30 -31 59 -68 52 -68 364 -471 476 -616 107
-138 163 -201 181 -204 10 -2 29 6 42 19 l24 22 0 527 c0 516 0 527 -20 548
-25 27 -41 28 -71 3 l-24 -19 -5 -429 -5 -428 -152 195 c-84 107 -190 245
-237 305 -47 61 -132 169 -188 242 -86 109 -129 153 -152 153 -2 0 -15 -9 -30
-21z"/>
<path d="M6541 7234 c-179 -48 -337 -201 -394 -379 -30 -96 -30 -241 1 -340
104 -339 483 -499 797 -337 93 48 199 154 242 243 47 96 63 169 63 284 0 90
-3 108 -31 175 -103 244 -286 371 -533 369 -50 0 -115 -7 -145 -15z m336 -144
c217 -107 308 -354 217 -589 -24 -61 -40 -84 -95 -136 -79 -74 -151 -110 -249
-126 -212 -33 -415 93 -486 301 -27 80 -25 225 5 302 47 122 150 224 270 266
56 19 81 22 168 19 91 -3 109 -7 170 -37z"/>
<path d="M7425 7234 c-24 -25 -16 -76 15 -91 19 -9 109 -13 349 -13 318 0 323
0 310 -19 -8 -11 -131 -169 -274 -352 -451 -576 -436 -557 -433 -592 5 -56 13
-57 451 -57 384 0 398 1 417 20 25 25 26 62 2 83 -17 15 -56 17 -350 17 -183
0 -332 4 -332 8 0 4 21 35 48 68 26 32 91 115 144 184 53 69 167 215 253 325
295 375 298 381 257 418 -17 15 -61 17 -430 17 -366 0 -412 -2 -427 -16z"/>
<path d="M10083 7238 c-12 -6 -26 -22 -32 -37 -14 -37 -95 -235 -266 -646
-172 -414 -168 -399 -119 -432 30 -19 63 -8 81 28 7 13 67 157 134 319 186
452 220 534 228 543 4 4 17 -16 29 -45 11 -29 45 -111 74 -183 30 -71 103
-248 163 -391 86 -209 112 -264 131 -273 28 -13 68 0 78 24 13 35 36 -24 -330
857 -41 98 -74 183 -74 188 0 16 -47 60 -62 59 -7 0 -23 -5 -35 -11z"/>
<path d="M3326 7218 c-14 -20 -16 -89 -16 -549 l0 -528 26 -20 c26 -20 38 -21
345 -21 306 0 320 1 339 20 25 25 26 62 2 83 -16 15 -53 17 -305 17 l-287 0 0
450 0 450 283 0 c271 0 284 1 305 20 27 25 28 61 4 83 -17 15 -56 17 -350 17
-331 0 -331 0 -346 -22z"/>
<path d="M4591 7224 c-204 -55 -362 -222 -406 -431 -28 -130 -11 -256 50 -378
46 -94 104 -158 194 -217 181 -118 411 -125 591 -19 113 67 145 116 102 154
-27 25 -74 21 -101 -7 -37 -39 -140 -85 -219 -97 -60 -9 -87 -8 -155 6 -416
84 -485 659 -101 846 67 33 73 34 189 34 110 0 125 -2 178 -27 32 -15 70 -37
84 -48 14 -11 35 -20 47 -20 58 1 82 75 35 111 -40 32 -140 78 -204 94 -74 19
-212 18 -284 -1z"/>
<path d="M5287 7212 c-10 -11 -17 -35 -17 -60 l0 -41 249 -3 249 -3 44 -30
c79 -56 108 -147 73 -231 -16 -40 -42 -64 -100 -97 -38 -21 -54 -22 -277 -25
l-238 -3 0 -287 c0 -158 4 -292 8 -298 4 -6 17 -16 30 -23 23 -12 58 -1 74 23
4 6 8 113 8 237 l0 226 187 7 c152 6 197 12 242 28 64 24 146 100 176 163 23
48 31 146 16 200 -16 61 -65 131 -116 168 -86 60 -116 65 -366 66 -207 1 -227
-1 -242 -17z"/>
<path d="M3480 6670 l0 -60 188 0 c170 0 191 2 205 18 21 23 22 66 1 86 -13
13 -46 16 -205 16 l-189 0 0 -60z"/>
<path d="M5650 6571 c0 -6 51 -112 112 -237 121 -243 136 -261 184 -230 44 30
40 45 -68 263 l-103 208 -62 3 c-38 2 -63 -1 -63 -7z"/>
<path d="M880 4995 l0 -135 5530 0 5530 0 0 135 0 135 -5530 0 -5530 0 0 -135z"/>
</g>
</svg>
